<?xml version="1.0" standalone="no"?>
<!DOCTYPE svg PUBLIC "-//W3C//DTD SVG 20010904//EN"
 "http://www.w3.org/TR/2001/REC-SVG-20010904/DTD/svg10.dtd">
<svg version="1.0" xmlns="http://www.w3.org/2000/svg"
 width="1688.000000pt" height="1688.000000pt" viewBox="0 0 1688.000000 1688.000000"
 preserveAspectRatio="xMidYMid meet">

<g transform="translate(0.000000,1688.000000) scale(0.100000,-0.100000)"
fill="#000000" stroke="none">
<path d="M10015 13100 c-38 -4 -135 -8 -216 -9 -164 -1 -390 -17 -464 -32
-110 -22 -278 -117 -440 -250 -70 -57 -268 -257 -357 -361 -26 -31 -65 -63
-85 -73 -224 -102 -298 -156 -468 -345 -80 -88 -137 -131 -256 -190 -75 -38
-232 -190 -321 -310 -67 -91 -91 -114 -143 -136 -54 -22 -147 -95 -227 -178
-119 -123 -187 -293 -174 -433 5 -44 2 -71 -7 -90 -25 -49 -26 -101 -6 -206
17 -92 18 -103 4 -113 -9 -7 -19 -28 -22 -48 -3 -20 -10 -39 -14 -42 -15 -9
-10 -100 6 -114 8 -7 17 -27 21 -46 5 -27 1 -39 -20 -65 -19 -23 -26 -42 -26
-74 0 -42 1 -44 33 -47 48 -5 49 -44 3 -94 -45 -50 -53 -95 -38 -239 8 -71 9
-131 3 -170 -5 -33 -12 -139 -16 -235 -3 -96 -11 -197 -17 -223 -12 -56 -28
-73 -155 -160 -49 -33 -131 -89 -183 -125 -52 -36 -150 -103 -217 -149 -137
-93 -183 -141 -224 -229 -15 -34 -41 -84 -57 -110 -56 -97 -82 -178 -82 -260
0 -41 5 -85 11 -96 6 -12 13 -52 14 -90 2 -38 7 -74 12 -81 6 -7 17 -31 26
-54 20 -51 84 -148 122 -183 l26 -24 -7 65 c-5 53 -3 67 10 78 21 17 21 59 -1
83 -23 26 -24 90 -1 96 10 2 18 13 18 24 0 18 1 18 16 4 20 -21 58 -20 79 0
12 13 18 14 30 4 10 -8 12 -17 6 -24 -5 -6 -8 -27 -6 -46 l3 -35 58 0 c41 0
72 -7 101 -23 23 -12 49 -22 57 -22 8 0 35 -9 60 -20 31 -13 46 -25 46 -38 0
-10 9 -27 19 -37 11 -9 21 -33 23 -53 4 -49 22 -50 38 -2 7 22 17 40 23 40 5
0 26 14 47 30 21 17 41 30 44 30 4 0 20 -14 36 -30 16 -17 33 -30 37 -30 3 0
17 -10 30 -22 17 -16 37 -23 68 -23 35 0 48 -5 61 -23 12 -17 19 -21 27 -13 6
6 22 11 35 11 13 0 31 4 40 9 26 14 72 2 72 -19 0 -29 11 -50 26 -50 8 0 14 6
15 13 0 6 5 -1 11 -16 7 -20 7 -32 0 -39 -18 -18 23 -88 47 -81 29 8 36 -16 7
-27 -14 -5 -26 -14 -26 -20 0 -14 57 -12 64 3 4 8 10 5 22 -10 23 -32 39 -29
64 12 25 40 29 43 27 15 -1 -11 -4 -20 -8 -20 -18 0 -17 -36 1 -67 11 -19 20
-41 20 -49 0 -8 5 -14 10 -14 6 0 10 7 10 15 0 16 34 38 44 28 3 -3 6 -16 6
-28 0 -13 7 -28 15 -35 20 -17 47 5 43 34 -5 42 12 49 40 18 15 -17 46 -38 69
-48 23 -9 40 -21 38 -25 -5 -8 19 -19 41 -19 12 0 12 4 4 21 -15 28 -2 39 15
14 65 -94 77 -104 101 -80 9 8 24 15 35 15 10 0 19 5 19 10 0 6 -5 10 -10 10
-6 0 -21 9 -32 20 l-22 20 32 -6 c31 -6 45 7 22 21 -20 12 -9 25 15 19 14 -3
31 -2 38 3 10 9 96 18 97 10 12 -74 12 -75 -17 -91 -15 -8 -35 -18 -44 -22
-12 -4 -18 -23 -21 -77 -5 -75 -24 -130 -38 -108 -8 14 -20 -8 -20 -38 0 -21
-56 -80 -88 -92 -38 -15 -59 -11 -89 17 l-28 25 -8 -26 c-11 -33 -27 -16 -27
29 0 25 -3 27 -24 22 -19 -5 -26 -1 -31 14 -3 10 -2 28 4 38 5 10 6 24 1 32
-7 11 -11 8 -21 -13 -7 -15 -16 -27 -20 -27 -4 0 -11 -30 -15 -67 l-8 -68 -10
47 c-6 25 -14 50 -18 54 -5 4 -8 18 -8 31 0 13 -4 23 -10 23 -5 0 -10 7 -10
15 0 21 -13 19 -41 -7 -32 -30 -34 -37 -13 -53 16 -11 16 -15 5 -29 -10 -12
-17 -14 -27 -5 -11 9 -14 5 -14 -25 0 -22 -4 -35 -10 -31 -5 3 -10 20 -10 36
0 17 -4 28 -10 24 -5 -3 -12 17 -16 45 -4 28 -11 53 -15 56 -12 7 -11 44 1 44
6 0 10 7 10 15 0 8 -4 15 -9 15 -11 0 -20 -34 -22 -75 0 -16 -4 -39 -9 -50 -7
-18 -9 -16 -15 13 -7 32 -25 45 -25 18 0 -21 -24 -38 -37 -25 -18 18 -35 1
-22 -22 10 -20 4 -59 -10 -59 -5 0 -14 6 -20 14 -12 14 -71 15 -103 1 -10 -4
-18 -3 -18 2 0 5 -7 10 -15 10 -13 0 -14 -3 -3 -13 7 -7 20 -14 28 -16 8 -2
23 -11 35 -21 11 -10 58 -36 103 -58 46 -22 106 -55 134 -74 28 -18 96 -48
152 -65 97 -31 132 -43 276 -95 36 -13 101 -31 145 -40 43 -9 85 -21 92 -27 8
-7 62 -11 136 -11 101 0 138 4 218 26 129 36 144 35 204 -13 95 -75 134 -100
225 -146 75 -38 97 -55 130 -98 21 -29 58 -68 81 -87 37 -29 51 -34 95 -34 43
0 60 6 98 33 76 55 98 53 191 -14 85 -61 132 -84 153 -77 7 3 24 2 38 -1 23
-6 24 -8 10 -34 -8 -15 -29 -42 -47 -60 -58 -61 -99 -141 -99 -193 0 -28 -6
-51 -14 -59 -8 -6 -20 -27 -26 -46 -14 -43 -35 -54 -101 -54 -38 0 -64 -7 -98
-27 -25 -14 -49 -31 -53 -37 -16 -24 -7 -63 20 -87 44 -41 130 -91 142 -84 7
4 40 11 75 15 35 4 79 16 97 26 90 47 128 63 188 74 56 11 73 10 119 -4 61
-18 240 -22 287 -6 16 5 100 18 186 30 86 11 170 25 185 31 15 6 105 17 198
25 178 14 239 23 394 56 126 27 184 21 222 -24 24 -29 30 -31 46 -20 10 6 28
16 41 22 12 5 22 14 22 20 0 5 8 10 18 10 21 0 53 -33 70 -73 34 -80 89 -20
118 130 20 100 37 136 83 172 32 26 48 31 92 31 46 0 59 4 87 31 38 35 38 42
12 109 -11 28 -20 64 -20 81 0 48 31 33 53 -26 30 -81 16 -135 -54 -220 -9
-11 -24 -41 -33 -68 -15 -45 -15 -49 6 -95 12 -26 32 -63 45 -82 12 -19 29
-55 38 -80 8 -25 31 -74 49 -110 19 -36 44 -90 56 -120 12 -30 37 -86 55 -125
19 -38 46 -104 61 -145 15 -41 44 -111 65 -155 57 -121 119 -264 119 -274 0
-5 13 -39 29 -77 15 -38 34 -87 40 -109 13 -42 52 -143 81 -210 10 -22 29 -71
43 -110 14 -38 37 -98 51 -132 13 -35 23 -63 21 -63 -3 0 0 -12 6 -27 6 -16
37 -102 69 -193 32 -91 80 -223 105 -295 26 -71 50 -141 55 -155 7 -24 34 -86
135 -310 26 -58 53 -121 60 -140 15 -39 69 -156 187 -400 44 -91 89 -187 99
-214 11 -27 26 -58 34 -70 9 -12 15 -44 15 -78 0 -32 5 -67 12 -77 9 -15 8
-23 -9 -44 -18 -23 -25 -25 -74 -21 -99 8 -162 3 -224 -17 -142 -47 -180 -78
-214 -176 -21 -59 -21 -69 -10 -164 12 -106 5 -175 -26 -244 -35 -80 -48 -117
-66 -197 -25 -114 -25 -118 13 -197 23 -49 58 -93 138 -176 59 -60 144 -158
189 -218 47 -61 97 -114 114 -124 18 -9 43 -26 56 -39 13 -13 40 -26 60 -29
62 -10 171 -67 206 -108 l32 -37 578 0 578 0 -22 24 c-55 59 -104 199 -104
296 1 64 5 82 29 123 16 27 34 57 40 68 6 11 20 30 31 42 19 21 44 65 89 157
33 68 50 206 34 277 -7 32 -17 64 -24 72 -7 9 -13 127 -18 360 -3 190 -11 366
-17 391 -6 25 -11 62 -11 84 0 25 -15 69 -42 125 -45 89 -120 175 -224 253
-27 21 -69 54 -93 74 -25 19 -72 49 -105 66 -34 17 -84 46 -112 64 -43 28 -60
34 -107 34 -83 0 -104 -13 -122 -76 -8 -29 -20 -56 -25 -59 -6 -3 -10 -27 -11
-53 0 -26 -8 -60 -18 -77 -16 -27 -22 -30 -62 -26 -59 4 -124 64 -213 196
-132 196 -270 510 -443 1010 -111 321 -224 651 -232 680 -9 30 -37 109 -130
370 -27 77 -84 237 -126 355 -157 441 -213 611 -331 1010 -20 69 -61 199 -90
289 -30 89 -54 177 -54 195 0 34 61 116 185 249 54 57 69 67 87 62 33 -10 91
-58 105 -86 6 -13 29 -62 51 -109 22 -47 49 -95 61 -107 27 -28 64 -29 101 -3
50 36 73 40 116 21 53 -24 104 -83 104 -122 0 -17 -18 -59 -44 -102 -63 -105
-86 -153 -86 -182 0 -21 4 -25 31 -25 17 0 40 5 52 11 28 15 136 107 160 136
31 39 60 30 191 -54 37 -24 143 -85 235 -135 145 -79 216 -125 263 -171 40
-39 95 -71 155 -92 67 -22 329 -148 348 -166 14 -14 25 -11 25 6 0 33 -95 111
-205 168 -136 71 -297 182 -350 240 -40 44 -98 170 -163 352 -45 124 -108 241
-183 341 -38 50 -69 95 -69 100 0 5 -18 45 -40 88 -22 43 -40 87 -40 97 0 10
-22 63 -49 116 -64 129 -66 142 -37 184 14 19 51 77 84 129 39 61 75 106 102
125 92 65 102 78 107 130 4 35 25 87 71 174 60 115 70 127 137 180 l73 56 -6
45 c-12 83 3 193 33 240 54 88 145 271 145 293 0 17 33 57 118 143 67 68 154
171 204 239 98 137 140 179 251 250 43 28 100 64 126 81 26 17 79 48 117 69
87 48 96 60 89 109 -3 21 -2 43 3 50 55 68 81 536 38 678 -8 26 -20 82 -25
124 -6 42 -24 115 -41 163 -16 47 -35 111 -41 141 -6 30 -22 81 -35 113 -14
32 -41 122 -60 200 -55 221 -135 353 -243 402 -37 16 -49 17 -94 7 -29 -7 -86
-17 -127 -23 -41 -5 -106 -21 -144 -34 -38 -13 -73 -22 -77 -19 -4 2 -15 28
-24 57 -24 72 -136 287 -190 363 -104 146 -276 221 -587 258 -31 4 -61 13 -66
19 -6 7 -45 100 -87 207 -135 344 -184 423 -295 480 -137 70 -363 124 -473
114 -65 -6 -155 -33 -219 -65 -21 -11 -48 -19 -60 -19 -32 0 -136 32 -248 75
-73 28 -121 40 -211 50 -101 11 -126 17 -176 46 -119 67 -321 162 -403 189
-302 102 -643 147 -905 120z m930 -1136 c20 -17 24 -24 11 -20 -81 26 -107 28
-149 13 -23 -9 -62 -19 -87 -23 -25 -4 -52 -12 -60 -18 -27 -21 -64 -35 -125
-46 -95 -18 -196 -60 -233 -97 -19 -18 -44 -33 -55 -33 -12 0 -55 -6 -96 -14
-57 -11 -88 -12 -130 -4 -31 5 -74 13 -95 17 -22 3 -41 12 -44 20 -4 11 14 12
104 6 60 -4 128 -10 152 -15 23 -4 42 -4 42 1 0 5 6 9 13 9 7 0 38 24 68 54
31 29 81 70 113 90 61 39 109 45 191 26 43 -10 113 6 185 42 22 11 59 17 100
18 56 0 69 -4 95 -26z m195 -147 c0 -6 -9 -2 -20 8 -11 10 -20 23 -20 28 0 6
9 2 20 -8 11 -10 20 -23 20 -28z m280 -27 c0 -5 -4 -10 -10 -10 -5 0 -10 5
-10 10 0 6 5 10 10 10 6 0 10 -4 10 -10z m300 -76 c17 -31 30 -65 28 -77 -3
-16 -12 -4 -36 47 -30 65 -37 86 -28 86 2 0 18 -25 36 -56z m-513 -36 c-3 -8
-6 -5 -6 6 -1 11 2 17 5 13 3 -3 4 -12 1 -19z m23 -62 c0 -26 -6 -18 -14 19
-5 22 -4 26 4 15 5 -8 10 -24 10 -34z m2280 -286 c0 -5 -4 -10 -10 -10 -5 0
-10 5 -10 10 0 6 5 10 10 10 6 0 10 -4 10 -10z m-40 -15 c0 -11 7 -14 25 -9
16 4 25 2 25 -6 0 -6 4 -9 10 -5 12 8 44 -41 37 -59 -3 -8 -28 -16 -64 -20
-32 -3 -64 -7 -70 -8 -7 -1 -13 -8 -13 -16 0 -34 -14 2 -16 41 -2 34 2 49 22
70 28 30 44 34 44 12z m60 -158 c0 -14 -73 -3 -78 12 -3 9 1 11 16 7 14 -5 22
-1 27 11 6 17 7 17 21 -1 8 -11 14 -24 14 -29z m-2383 -59 c-3 -7 -5 -2 -5 12
0 14 2 19 5 13 2 -7 2 -19 0 -25z m-21 -235 c-16 -207 -24 -334 -25 -406 -1
-27 -5 -37 -15 -35 -8 2 -22 -6 -30 -17 -14 -19 -15 -17 -16 28 0 26 6 91 14
145 8 53 17 135 21 182 6 77 38 274 51 309 14 41 14 -19 0 -206z m2404 91 c18
-18 31 -23 47 -19 19 4 26 -2 44 -39 29 -63 23 -86 -26 -101 -54 -15 -92 -42
-108 -73 -6 -14 -26 -30 -43 -36 -31 -11 -60 -29 -114 -73 -42 -34 -68 -30
-72 10 -2 27 -8 33 -30 35 -16 2 -28 7 -28 13 0 22 36 89 48 89 10 0 12 7 8
23 -3 14 1 32 9 43 8 10 15 29 15 40 0 27 84 94 117 94 12 0 23 -4 23 -10 0
-19 49 -10 60 10 14 26 22 25 50 -6z m-4104 -127 c44 -25 144 -122 144 -139 0
-29 -56 -50 -137 -52 -71 -2 -75 -1 -99 27 -21 25 -24 37 -21 94 2 43 8 67 17
73 21 13 71 12 96 -3z m-1666 -57 c0 -13 -1 -13 -10 0 -5 8 -10 22 -10 30 0
13 1 13 10 0 5 -8 10 -22 10 -30z m3640 -130 c-23 -32 -39 -45 -46 -37 -5 5
53 67 62 67 3 0 -4 -13 -16 -30z m-3537 -175 c9 -18 9 -19 -6 -6 -10 7 -17 23
-16 35 0 14 2 16 6 6 3 -8 10 -24 16 -35z m1598 -49 c-12 -18 -21 -40 -21 -49
0 -9 -10 -28 -23 -43 -22 -25 -25 -26 -53 -13 -16 8 -30 21 -32 29 -4 24 65
98 96 103 55 8 55 8 33 -27z m-1527 -156 c4 -19 3 -30 -2 -25 -15 18 -52 117
-51 139 1 27 44 -65 53 -114z m2784 -134 c-32 -43 -68 -74 -68 -59 0 12 81
103 91 103 5 0 -5 -20 -23 -44z m-118 -134 c0 -12 -41 -92 -63 -122 -33 -46
-127 -190 -127 -195 0 -2 -10 -15 -22 -29 -13 -13 -34 -39 -47 -56 -13 -17
-25 -29 -28 -26 -4 4 35 84 47 96 3 3 11 17 17 32 15 33 47 81 118 178 31 41
63 87 73 102 17 27 32 36 32 20z m-3450 -33 c0 -5 4 -8 9 -5 15 9 48 -54 61
-114 17 -79 23 -160 12 -160 -10 0 -42 134 -42 176 0 30 -14 60 -43 92 -11 12
-15 22 -9 22 7 0 12 -5 12 -11z m2310 -139 c8 -5 11 -12 8 -16 -10 -9 -38 3
-38 16 0 12 10 13 30 0z m-2040 -254 c0 -12 -5 -7 -19 24 -11 24 -11 24 3 6 9
-11 16 -24 16 -30z m390 -26 c19 -5 59 -13 88 -19 30 -6 58 -13 63 -17 35 -21
219 -56 326 -61 78 -4 120 -10 116 -16 -11 -18 -288 0 -373 24 -41 11 -79 24
-85 28 -5 4 -37 13 -70 20 -113 24 -135 31 -135 47 0 12 5 14 18 9 9 -4 33
-11 52 -15z m-305 -44 c15 -11 17 -17 8 -26 -8 -9 -18 -5 -42 17 -48 46 -23
53 34 9z m1230 -11 c-35 -29 -77 -42 -160 -49 -59 -5 -59 -5 -15 5 61 14 179
59 186 71 3 5 9 7 12 3 3 -3 -7 -17 -23 -30z m-1719 -230 c12 -25 18 -45 14
-45 -5 0 -24 32 -48 83 -2 4 0 7 5 7 4 -1 17 -21 29 -45z m929 -46 c5 -6 4 -9
-3 -10 -7 -1 -18 -2 -24 -3 -13 -2 -28 13 -28 27 0 10 40 -1 55 -14z m1393
-209 c-23 -22 -47 -39 -53 -39 -5 0 9 17 32 39 23 22 47 40 53 40 7 0 -8 -18
-32 -40z m-1978 -33 c58 -20 138 -79 145 -105 3 -13 -2 -44 -11 -68 -16 -41
-16 -47 0 -98 10 -30 16 -72 14 -93 l-3 -38 -18 38 c-10 20 -27 81 -39 135
-11 53 -29 114 -40 135 -10 20 -15 37 -11 37 4 0 -12 12 -35 27 -23 15 -42 31
-42 35 0 10 -2 10 40 -5z m1902 -39 c-7 -7 -12 -8 -12 -2 0 14 12 26 19 19 2
-3 -1 -11 -7 -17z m-22 -23 c0 -16 -75 -75 -94 -75 -6 0 -3 7 7 14 9 7 17 18
17 25 0 6 5 11 10 11 6 0 19 9 30 20 24 24 30 25 30 5z m-1217 -31 c15 -3 27
-10 27 -15 0 -13 -12 -11 -54 6 -37 16 -50 31 -18 21 9 -3 29 -8 45 -12z
m-364 -63 c67 -73 99 -116 131 -176 18 -33 44 -75 59 -94 14 -18 34 -47 45
-65 10 -17 27 -41 37 -55 10 -13 19 -28 19 -33 0 -18 125 -259 150 -290 19
-23 35 -31 58 -31 21 0 32 -5 32 -15 0 -9 -6 -12 -15 -8 -11 4 -19 -3 -26 -21
-11 -31 -1 -59 41 -106 26 -29 37 -57 39 -92 1 -19 -16 -28 -79 -46 -9 -2 -21
9 -32 30 -9 19 -25 42 -34 50 -15 15 -16 13 -11 -24 3 -22 8 -48 12 -57 11
-27 -23 -23 -36 5 -26 56 -42 76 -70 89 -16 7 -32 23 -35 35 -6 22 -34 40 -34
21 0 -7 -5 -6 -15 2 -8 7 -15 17 -15 22 0 5 -8 17 -17 28 -10 10 -27 36 -38
57 -11 21 -34 57 -52 80 -17 24 -35 53 -39 65 -4 13 -25 46 -48 74 -79 99
-106 144 -87 144 5 0 11 9 14 20 3 11 12 20 21 20 19 0 19 -2 1 49 -13 39 -13
43 5 61 18 18 18 19 -1 36 -31 28 -33 53 -5 80 20 21 28 23 45 15 36 -20 33 7
-6 50 -21 23 -39 36 -41 29 -4 -11 -13 -3 -76 68 l-19 22 43 0 c37 0 47 -5 79
-39z m1468 -13 c-3 -8 -6 -5 -6 6 -1 11 2 17 5 13 3 -3 4 -12 1 -19z m963
-462 c0 -3 -4 -8 -10 -11 -5 -3 -10 -1 -10 4 0 6 5 11 10 11 6 0 10 -2 10 -4z
m-4050 -546 c0 -19 -5 -30 -14 -30 -20 0 -29 16 -21 40 10 32 35 25 35 -10z
m1211 -353 c-13 -13 -31 0 -24 19 4 11 8 12 20 3 9 -8 10 -16 4 -22z m-11
-112 c0 -8 -7 -15 -15 -15 -9 0 -12 6 -9 15 4 8 10 15 15 15 5 0 9 -7 9 -15z
m220 -85 c0 -5 -5 -10 -11 -10 -5 0 -7 5 -4 10 3 6 8 10 11 10 2 0 4 -4 4 -10z
m145 -60 c4 -6 -5 -10 -19 -10 -14 0 -26 5 -26 10 0 6 9 10 19 10 11 0 23 -4
26 -10z m4178 -359 c3 -14 0 -17 -14 -14 -19 5 -25 24 -13 36 10 9 21 0 27
-22z m-4546 -93 c-3 -7 -5 -2 -5 12 0 14 2 19 5 13 2 -7 2 -19 0 -25z m1063
-25 c0 -20 -3 -24 -11 -16 -7 7 -9 19 -6 27 10 24 17 19 17 -11z m-903 -67
c-5 -16 -27 -19 -27 -3 0 7 7 14 15 14 9 0 14 -5 12 -11z m173 -26 c0 -5 -2
-10 -4 -10 -3 0 -8 5 -11 10 -3 6 -1 10 4 10 6 0 11 -4 11 -10z m4025 -80 c15
-17 16 -24 7 -45 -18 -39 -48 -32 -55 12 -4 24 -2 40 6 45 18 11 22 10 42 -12z
m-460 -38 c0 -31 -19 -28 -23 4 -3 18 0 25 10 22 7 -3 13 -14 13 -26z m378
-26 c3 -8 -2 -16 -14 -19 -14 -4 -19 0 -19 14 0 22 25 26 33 5z m-2400 -25
c14 -5 46 -31 72 -57 42 -44 155 -104 155 -84 0 5 -12 12 -27 17 -28 10 -28
10 -6 21 18 10 27 7 62 -21 32 -26 40 -39 41 -67 1 -19 4 -29 7 -22 7 19 47
14 63 -8 8 -11 22 -20 31 -20 10 0 30 -14 46 -31 36 -39 87 -65 187 -95 88
-27 122 -48 93 -60 -24 -9 -76 2 -120 26 -20 11 -43 20 -51 20 -7 0 -34 9 -60
20 -39 18 -57 20 -123 14 -43 -4 -90 -13 -105 -20 -15 -8 -34 -14 -43 -14 -16
0 -5 13 55 63 11 10 18 22 15 28 -11 17 -403 201 -459 215 -14 3 -26 10 -26
15 0 5 -9 9 -20 9 -66 0 36 37 150 54 14 2 28 4 32 5 4 0 18 -3 31 -8z m2029
-68 c21 -24 32 -79 18 -88 -21 -13 -50 26 -50 67 0 42 9 47 32 21z m263 -3 c3
-5 1 -10 -4 -10 -6 0 -11 5 -11 10 0 6 2 10 4 10 3 0 8 -4 11 -10z m-386 -129
c10 -17 20 -19 116 -15 126 5 145 -2 145 -52 l0 -36 -52 3 c-50 2 -74 -2 -108
-20 -15 -8 -21 -85 -10 -121 4 -11 -5 -16 -34 -18 -21 -2 -43 1 -49 7 -17 17
-34 13 -40 -10 -3 -12 -10 -18 -16 -15 -5 4 -15 -3 -21 -15 -10 -18 -8 -25 14
-48 26 -27 34 -65 16 -76 -11 -7 -107 16 -172 41 -45 17 -48 17 -80 0 -29 -15
-33 -23 -30 -46 5 -34 -14 -42 -105 -44 -43 -1 -67 -7 -81 -19 -10 -9 -31 -17
-45 -17 -36 0 -34 -8 13 -54 31 -30 37 -42 29 -53 -15 -17 -34 -17 -49 2 -14
17 -57 20 -62 4 -2 -6 -14 -5 -33 5 -17 9 -25 16 -20 16 6 0 3 5 -5 10 -8 5
-24 7 -34 4 -13 -4 -25 1 -36 16 l-17 23 -7 -27 c-3 -14 -13 -26 -20 -26 -8 0
-16 -7 -20 -15 -3 -8 -14 -15 -25 -15 -11 0 -26 -7 -34 -15 -13 -12 -16 -12
-29 3 -27 32 -46 68 -50 93 -2 16 -10 25 -25 27 -34 5 -44 24 -33 63 6 18 10
51 10 72 0 25 5 40 15 44 23 8 29 -3 26 -48 -1 -28 2 -39 9 -34 7 4 16 -6 22
-23 11 -28 13 -29 33 -16 20 13 25 12 48 -7 15 -11 27 -16 27 -11 0 6 -4 12
-10 14 -5 2 -12 36 -16 76 -6 63 -5 72 10 72 9 0 21 -10 26 -22 l9 -23 7 23
c3 12 11 22 16 22 5 0 6 4 3 10 -10 17 63 143 89 153 9 4 9 -15 3 -70 -7 -53
-6 -78 2 -86 8 -8 11 -5 11 10 0 33 16 36 38 8 13 -16 26 -23 36 -19 9 3 27
-1 39 -9 13 -8 35 -13 50 -10 20 4 27 12 29 37 2 19 8 30 16 28 7 -1 17 9 22
23 14 36 40 32 40 -6 0 -40 22 -33 31 10 4 17 14 40 23 50 9 10 16 25 16 33 0
31 23 24 66 -19 l42 -44 7 30 c3 16 2 39 -4 50 -13 24 -14 58 -2 66 16 9 39
-23 35 -47 l-5 -23 12 22 c11 21 12 21 45 3 20 -12 32 -14 29 -7 -2 7 -6 35
-9 64 -6 51 -6 52 21 56 63 9 82 7 92 -12z m-1319 -311 c0 -12 -50 -33 -58
-26 -3 3 1 12 8 21 14 17 50 20 50 5z m160 -289 c0 -12 7 -18 17 -17 19 1 38
-32 47 -84 l7 -35 -25 39 c-13 21 -29 42 -35 46 -15 9 -32 70 -20 70 5 0 9 -8
9 -19z m94 -53 c-9 -14 -24 -9 -24 9 0 9 -8 26 -17 37 -10 12 -3 8 14 -8 18
-16 30 -33 27 -38z m479 22 c7 -27 -9 -35 -22 -11 -14 26 -14 31 3 31 7 0 16
-9 19 -20z"/>
<path d="M10840 6016 c0 -17 67 -72 77 -62 7 7 -33 53 -59 67 -14 7 -18 6 -18
-5z"/>
<path d="M10555 5920 c-4 -6 5 -10 19 -10 14 0 26 5 26 10 0 6 -9 10 -19 10
-11 0 -23 -4 -26 -10z"/>
<path d="M10050 5781 c0 -6 5 -13 10 -16 6 -3 10 1 10 9 0 9 -4 16 -10 16 -5
0 -10 -4 -10 -9z"/>
<path d="M10175 5709 c-4 -12 -2 -26 4 -32 8 -8 11 -2 11 21 0 37 -6 41 -15
11z"/>
<path d="M7125 7159 c-10 -15 3 -25 16 -12 7 7 7 13 1 17 -6 3 -14 1 -17 -5z"/>
<path d="M7832 6740 c0 -14 2 -19 5 -12 2 6 2 18 0 25 -3 6 -5 1 -5 -13z"/>
<path d="M7731 6726 c-9 -10 -9 -16 -1 -21 17 -10 37 12 24 25 -8 8 -15 6 -23
-4z"/>
</g>
</svg>
